<svg width="770" height="530" xmlns="http://www.w3.org/2000/svg">
 <defs>
  <linearGradient gradientTransform="matrix(1.3748483667205846,0,0,1.3748483667205846,-31.808911586040267,-290.0991238674469)" y2="372.4919" x2="255.6957" y1="239.2281" x1="122.432" gradientUnits="userSpaceOnUse" id="svg_3">
   <stop stop-color="#38BBCA" offset="0"/>
   <stop stop-color="#33B5C7" offset="0.2287"/>
   <stop stop-color="#22A6C0" offset="0.5994"/>
   <stop stop-color="#0092B7" offset="1"/>
  </linearGradient>
  <linearGradient gradientTransform="matrix(1.3748483667205846,0,0,1.3748483667205846,-31.808911586040267,-290.0991238674469)" y2="334.3006" x2="573.0559" y1="334.3006" x1="24.6908" gradientUnits="userSpaceOnUse" id="svg_2">
   <stop stop-color="#38BBCA" offset="0"/>
   <stop stop-color="#0092B7" offset="0.5028"/>
   <stop stop-color="#2A96B1" offset="0.5161"/>
   <stop stop-color="#74AB90" offset="0.5872"/>
   <stop stop-color="#9EBE70" offset="0.6515"/>
   <stop stop-color="#BBCD4D" offset="0.7066"/>
   <stop stop-color="#CCD932" offset="0.7504"/>
   <stop stop-color="#D3DE25" offset="0.7775"/>
  </linearGradient>
 </defs>
 <g>
  <title>Layer 1</title>
  <g stroke="null" id="svg_1">
   <path stroke="null" fill="#BED734" d="m617.2296,338.16523l-14.68338,0c-2.30975,0 -4.17954,-1.86979 -4.17954,-4.17954l0,-248.47636c0,-2.30975 1.86979,-4.17954 4.17954,-4.17954l14.69713,0c2.30975,0 4.17954,1.86979 4.17954,4.17954l0,248.49011c-0.01375,2.296 -1.88354,4.16579 -4.19329,4.16579z" class="st0"/>
   <path stroke="null" fill="url(#svg_3)" d="m339.00151,197.38074l-221.74931,0c-7.16296,0 -12.96482,-5.80186 -12.96482,-12.96482l0,-108.0081c0,-7.16296 5.80186,-12.96482 12.96482,-12.96482l221.73556,0c7.16296,0 12.96482,5.80186 12.96482,12.96482l0,108.0081c0.01375,7.16296 -5.78811,12.96482 -12.95107,12.96482z" class="st1"/>
   <polygon stroke="null" fill="#BED734" points="599.2209090314009,141.79567671067343 563.3786301791861,157.99139259133153 599.2209090314009,181.47373363916995 " class="st0"/>
   <g stroke="null">
    <g stroke="null">
     <g stroke="null">
      <path stroke="null" fill="#BED734" d="m550.87941,149.2748c0.59118,0 1.08613,0.21998 1.51233,0.63243c0.4262,0.4262 0.63243,0.97614 0.63243,1.64982c0,0.15123 -0.01375,0.28872 -0.04125,0.43995c-0.0275,0.15123 -0.06874,0.28872 -0.13748,0.43995l-6.73676,18.78043c-0.17873,0.49495 -0.4812,0.86615 -0.92115,1.12738c-0.43995,0.24747 -0.9074,0.34371 -1.40235,0.28872c-0.82491,-0.05499 -1.45734,-0.52244 -1.89729,-1.40235l-4.92196,-13.19855l1.01739,0.08249l-4.57825,13.11605c-0.41245,0.8799 -1.04488,1.34735 -1.89729,1.40235c-0.43995,0.05499 -0.89365,-0.04125 -1.34735,-0.28872c-0.4537,-0.24747 -0.76992,-0.61868 -0.94865,-1.12738l-6.81925,-18.78043c-0.08249,-0.28872 -0.13748,-0.59118 -0.13748,-0.8799c0,-0.59118 0.19248,-1.11363 0.59118,-1.58108c0.39871,-0.46745 0.9349,-0.70117 1.60857,-0.70117c0.46745,0 0.8799,0.12374 1.25111,0.35746c0.37121,0.23372 0.61868,0.59118 0.76992,1.05863l5.63688,15.8795l-1.01739,-0.08249l4.57825,-12.01618c0.38496,-0.9074 1.05863,-1.3611 2.02103,-1.3611c0.52244,0 0.9349,0.12374 1.23736,0.35746c0.28872,0.23372 0.52244,0.57744 0.70117,1.01739l4.66074,12.05742l-1.23736,0.13748l5.67812,-15.97574c0.34371,-0.94865 1.05863,-1.42984 2.14476,-1.42984z" class="st0"/>
     </g>
    </g>
   </g>
   <path stroke="null" fill="url(#svg_2)" d="m612.65136,1.06613c-65.45654,3.40962 -108.32431,38.97695 -127.07724,85.21311c-13.76223,33.91751 -18.75293,73.74687 -31.41529,100.35019c-10.98504,23.08371 -28.25314,35.12738 -68.26123,38.92196c-40.53053,3.83583 -277.00447,2.54347 -303.37406,2.55722c-3.27214,0 -5.93935,-2.63971 -5.95309,-5.9256l-0.89365,-180.50386c-0.01375,-3.29964 2.65346,-5.98059 5.95309,-5.98059l289.61183,0.21998c3.27214,0 5.9256,2.65346 5.95309,5.9256l0.67368,138.29601c0.01375,3.27214 2.68095,5.9256 5.95309,5.9256l6.02184,0c3.28589,0 5.95309,-2.66721 5.95309,-5.95309l0,-156.84271c0,-3.28589 -2.66721,-5.95309 -5.95309,-5.95309l-327.59889,0c-3.28589,0 -5.95309,2.66721 -5.95309,5.95309l0,214.36637c0,1.09988 -0.30247,2.17226 -0.86615,3.09341l-52.40922,85.90053c-2.40598,3.95956 0.41245,9.01901 5.04569,9.0465l420.16744,2.48848c4.23453,0.0275 7.14921,-4.26203 5.55439,-8.1941l-19.11039,-47.10231c-0.98989,-2.46098 -3.38213,-4.0558 -6.03558,-4.0558l-6.99798,0c-3.12091,0 -5.26567,3.16215 -4.1108,6.06308l9.96765,24.9535c1.56733,3.91832 -1.31985,8.1666 -5.54064,8.15285l-363.44119,-0.53619c-4.67448,-0.01375 -7.52042,-5.16943 -5.03195,-9.12899l35.52608,-56.38254c1.08613,-1.73231 2.99717,-2.77719 5.04569,-2.77719c0,0 288.84192,2.296 336.1367,-3.98706c55.95633,-7.43793 70.351,-50.08573 73.81561,-65.70401c15.60453,-70.24101 28.89931,-90.84999 42.74404,-110.46907c27.73069,-39.29317 64.92034,-43.65144 92.30733,-43.65144c67.06511,0 112.21513,54.52649 111.22524,121.81157c-0.94865,63.72423 -52.39548,116.25719 -116.09221,118.42945c-32.39143,1.09988 -63.76547,-8.89527 -86.21675,-28.51436c-2.68095,-2.35099 -6.73676,-2.15851 -9.26648,0.35746l-7.02548,7.02548c-2.46098,2.46098 -2.40598,6.50303 0.16498,8.84028c26.35585,23.97736 61.59321,35.37485 100.32269,35.37485c80.51113,0 142.17308,-60.54833 143.83665,-140.53701c1.7873,-84.66317 -58.77477,-151.4808 -143.35545,-147.06754z" class="st2"/>
   <g stroke="null">
    <g stroke="null">
     <path stroke="null" fill="#0092B7" d="m100.21783,421.15108c2.13102,0 4.24828,0.78366 6.33805,2.32349c2.08977,1.55358 3.13465,3.64335 3.13465,6.25556c0,1.8423 -0.67368,3.68459 -2.03478,5.52689l-55.76385,71.62961l-1.74606,-0.57744l48.62839,0c2.51597,0 4.63324,0.75617 6.33805,2.25475c1.69106,1.49858 2.54347,3.51961 2.54347,6.03558c0,2.43348 -0.85241,4.44076 -2.54347,6.03558c-1.70481,1.60857 -3.80833,2.40598 -6.33805,2.40598l-63.91671,0c-2.52972,0 -4.70198,-0.89365 -6.55803,-2.6947c-1.8423,-1.80105 -2.76345,-3.76708 -2.76345,-5.8981c0,-1.8423 0.67368,-3.68459 2.03478,-5.52689l55.90134,-71.91832l1.30611,0.86615l-44.10514,0c-2.52972,0 -4.63324,-0.76992 -6.33805,-2.32349c-1.70481,-1.55358 -2.54347,-3.58835 -2.54347,-6.11808c0,-2.51597 0.85241,-4.537 2.54347,-6.03558c1.69106,-1.49858 3.80833,-2.25475 6.33805,-2.25475l59.54469,0l0,0.01375z" class="st3"/>
     <path stroke="null" fill="#0092B7" d="m134.57529,421.15108l48.76588,0c2.51597,0 4.63324,0.79741 6.33805,2.40598c1.69106,1.60857 2.54347,3.67085 2.54347,6.18682c0,2.43348 -0.85241,4.38577 -2.54347,5.8981c-1.70481,1.51233 -3.80833,2.25475 -6.33805,2.25475l-40.76426,0l1.30611,-2.47473l0,28.39062l-1.16862,-1.16862l34.06875,0c2.51597,0 4.63324,0.79741 6.33805,2.40598c1.69106,1.60857 2.54347,3.67085 2.54347,6.18682c0,2.43348 -0.85241,4.39952 -2.54347,5.8981c-1.70481,1.49858 -3.80833,2.25475 -6.33805,2.25475l-33.62879,0l0.72867,-1.16862l0,29.40801l-1.16862,-1.30611l40.61302,0c2.51597,0 4.63324,0.85241 6.33805,2.54347c1.69106,1.70481 2.54347,3.67085 2.54347,5.8981c0,2.43348 -0.85241,4.41326 -2.54347,5.96684c-1.70481,1.55358 -3.80833,2.32349 -6.33805,2.32349l-48.76588,0c-2.52972,0 -4.63324,-0.85241 -6.33805,-2.54347c-1.70481,-1.69106 -2.54347,-3.80833 -2.54347,-6.33805l0,-84.15448c0,-2.51597 0.85241,-4.63324 2.54347,-6.33805c1.71856,-1.67732 3.83583,-2.52972 6.3518,-2.52972z" class="st3"/>
     <path stroke="null" fill="#0092B7" d="m251.05246,421.15108c5.04569,0 9.77517,1.45734 14.18844,4.37202c4.41326,2.91468 7.98787,6.84675 10.69632,11.7962c2.7222,4.94945 4.0833,10.47635 4.0833,16.59442c0,6.02184 -1.3611,11.50748 -4.0833,16.45694c-2.7222,4.94945 -6.28306,8.90902 -10.69632,11.86494c-4.41326,2.95592 -9.14274,4.44076 -14.18844,4.44076l-26.78205,0l1.45734,-2.62596l0,30.13668c0,2.52972 -0.78366,4.63324 -2.32349,6.33805c-1.55358,1.70481 -3.58835,2.54347 -6.11808,2.54347c-2.43348,0 -4.41326,-0.85241 -5.96684,-2.54347c-1.55358,-1.69106 -2.32349,-3.80833 -2.32349,-6.33805l0,-84.15448c0,-2.51597 0.85241,-4.63324 2.54347,-6.33805c1.69106,-1.69106 3.80833,-2.54347 6.33805,-2.54347l33.17509,0zm0,48.91711c1.8423,0 3.64335,-0.76992 5.38941,-2.32349c1.74606,-1.55358 3.2034,-3.56086 4.37202,-6.03558c1.16862,-2.47473 1.74606,-5.07319 1.74606,-7.79539c0,-2.81844 -0.57744,-5.43065 -1.74606,-7.86413c-1.16862,-2.41973 -2.62596,-4.38577 -4.37202,-5.8981c-1.74606,-1.49858 -3.54711,-2.25475 -5.38941,-2.25475l-27.08451,0l1.74606,-2.62596l0,37.12091l-1.60857,-2.32349l26.94703,0z" class="st3"/>
     <path stroke="null" fill="#0092B7" d="m306.08764,421.15108c2.32349,0 4.38577,0.85241 6.18682,2.54347c1.80105,1.70481 2.6947,3.80833 2.6947,6.33805l0,84.15448c0,2.52972 -0.92115,4.63324 -2.76345,6.33805c-1.8423,1.70481 -3.98706,2.54347 -6.40679,2.54347c-2.7222,0 -4.90821,-0.85241 -6.55803,-2.54347c-1.64982,-1.69106 -2.47473,-3.80833 -2.47473,-6.33805l0,-84.15448c0,-2.51597 0.8799,-4.63324 2.62596,-6.33805c1.74606,-1.69106 3.97331,-2.54347 6.69551,-2.54347zm-0.43995,42.37283l64.93409,0l0,16.74565l-64.93409,0l0,-16.74565zm64.93409,-42.37283c2.7222,0 4.89446,0.85241 6.55803,2.54347c1.64982,1.70481 2.47473,3.80833 2.47473,6.33805l0,84.15448c0,2.52972 -0.85241,4.63324 -2.54347,6.33805c-1.70481,1.70481 -3.95956,2.54347 -6.76425,2.54347c-2.32349,0 -4.38577,-0.85241 -6.18682,-2.54347c-1.80105,-1.69106 -2.6947,-3.80833 -2.6947,-6.33805l0,-84.15448c0,-2.51597 0.92115,-4.63324 2.76345,-6.33805c1.82855,-1.69106 3.95956,-2.54347 6.39305,-2.54347z" class="st3"/>
     <path stroke="null" fill="#0092B7" d="m466.38123,420.72488c2.22725,0 4.24828,0.85241 6.03558,2.54347c1.80105,1.70481 2.6947,3.86332 2.6947,6.47554c0,0.86615 -0.12374,1.77355 -0.35746,2.6947c-0.24747,0.92115 -0.65993,1.8148 -1.23736,2.6947l-33.05136,47.32228l2.62596,-10.05014l0,41.78165c0,2.52972 -0.85241,4.63324 -2.54347,6.33805c-1.70481,1.70481 -3.67085,2.54347 -5.8981,2.54347c-2.43348,0 -4.49575,-0.85241 -6.18682,-2.54347c-1.70481,-1.69106 -2.54347,-3.80833 -2.54347,-6.33805l0,-40.61302l1.16862,4.66074l-31.44278,-41.78165c-0.97614,-1.26486 -1.64982,-2.47473 -2.03478,-3.64335c-0.38496,-1.16862 -0.57744,-2.22725 -0.57744,-3.2034c0,-2.62596 1.01739,-4.75698 3.05216,-6.40679c2.03478,-1.64982 4.12455,-2.47473 6.25556,-2.47473c2.7222,0 5.10069,1.3611 7.13546,4.06955l27.95067,38.57825l-4.06955,-0.57744l25.76466,-37.71209c2.00728,-2.90093 4.44076,-4.35827 7.2592,-4.35827z" class="st3"/>
     <path stroke="null" fill="#0092B7" d="m498.69017,523.0686c-2.7222,0 -5.14193,-0.85241 -7.27295,-2.54347c-2.13102,-1.69106 -3.2034,-3.80833 -3.2034,-6.33805l0,-84.15448c0,-2.51597 0.85241,-4.63324 2.54347,-6.33805c1.69106,-1.69106 3.80833,-2.54347 6.33805,-2.54347l41.93288,0c5.04569,0 9.77517,1.3336 14.18844,4.00081c4.41326,2.66721 7.98787,6.3518 10.69632,11.06753c2.7222,4.70198 4.06955,10.11888 4.06955,16.23696c0,3.68459 -0.75617,7.27295 -2.25475,10.77881c-1.51233,3.49212 -3.54711,6.65427 -6.11808,9.45896c-2.57097,2.81844 -5.45815,5.00445 -8.66155,6.55803l0.15123,-3.35463c2.7222,1.45734 4.97695,3.1759 6.76425,5.16943c1.80105,1.99353 3.2034,4.12455 4.22078,6.40679c1.01739,2.28225 1.62232,4.72948 1.8148,7.35544c0.38496,2.43348 0.65993,4.5645 0.79741,6.40679c0.15123,1.8423 0.43995,3.39588 0.86615,4.66074c0.43995,1.26486 1.29236,2.22725 2.54347,2.91468c2.13102,1.26486 3.46462,3.07966 4.00081,5.45815c0.53619,2.37849 -0.0275,4.49575 -1.67732,6.33805c-1.07238,1.26486 -2.43348,2.06227 -4.06955,2.40598c-1.64982,0.34371 -3.29964,0.34371 -4.94945,0c-1.64982,-0.34371 -3.01092,-0.79741 -4.06955,-1.3886c-1.64982,-0.97614 -3.29964,-2.40598 -4.94945,-4.28953c-1.64982,-1.89729 -2.98342,-4.44076 -4.00081,-7.64416s-1.52608,-7.32794 -1.52608,-12.37364c0,-1.64982 -0.28872,-3.1759 -0.86615,-4.59199c-0.57744,-1.40235 -1.40235,-2.62596 -2.47473,-3.64335c-1.07238,-1.01739 -2.43348,-1.80105 -4.06955,-2.32349c-1.64982,-0.53619 -3.58835,-0.79741 -5.82936,-0.79741l-29.40801,0l2.18601,-3.35463l0,31.58027c0,2.52972 -0.67368,4.63324 -2.03478,6.33805c-1.3611,1.69106 -3.24464,2.54347 -5.67812,2.54347zm5.67812,-52.12051l33.91751,0c1.74606,0 3.43712,-0.79741 5.10069,-2.40598c1.64982,-1.60857 3.01092,-3.78083 4.06955,-6.55803c1.07238,-2.76345 1.60857,-5.80186 1.60857,-9.1015c0,-4.27578 -1.14112,-7.83664 -3.42337,-10.69632c-2.28225,-2.85968 -4.72948,-4.28953 -7.35544,-4.28953l-33.62879,0l1.74606,-4.66074l0,41.20421l-2.03478,-3.49212z" class="st3"/>
     <path stroke="null" fill="#0092B7" d="m660.59232,421.0136c2.51597,0 4.5645,0.85241 6.11808,2.54347c1.55358,1.70481 2.32349,3.80833 2.32349,6.33805l0,52.69794c0,8.05661 -1.71856,15.19208 -5.16943,21.40639c-3.45087,6.21432 -8.18035,11.06753 -14.18844,14.55965c-6.02184,3.49212 -13.00607,5.23817 -20.96644,5.23817c-7.96037,0 -14.9721,-1.74606 -21.03518,-5.23817c-6.06308,-3.49212 -10.82006,-8.34533 -14.27093,-14.55965c-3.45087,-6.21432 -5.16943,-13.34978 -5.16943,-21.40639l0,-52.69794c0,-2.51597 0.86615,-4.63324 2.62596,-6.33805c1.74606,-1.69106 3.97331,-2.54347 6.69551,-2.54347c2.22725,0 4.24828,0.85241 6.03558,2.54347c1.7873,1.70481 2.6947,3.80833 2.6947,6.33805l0,52.69794c0,4.85322 1.04488,9.0465 3.13465,12.59361c2.08977,3.54711 4.85322,6.28306 8.30408,8.22159c3.43712,1.93854 7.10797,2.91468 10.99879,2.91468c4.16579,0 8.05661,-0.97614 11.64497,-2.91468c3.58835,-1.93854 6.50303,-4.68823 8.73029,-8.22159c2.22725,-3.54711 3.35463,-7.7404 3.35463,-12.59361l0,-52.69794c0,-2.51597 0.72867,-4.63324 2.18601,-6.33805c1.42984,-1.69106 3.42337,-2.54347 5.95309,-2.54347z" class="st3"/>
     <path stroke="null" fill="#0092B7" d="m723.62912,524.52594c-6.79175,0 -12.90983,-0.85241 -18.34048,-2.54347c-5.4444,-1.69106 -10.62758,-4.68823 -15.57703,-8.95026c-1.26486,-1.07238 -2.22725,-2.28225 -2.91468,-3.64335c-0.67368,-1.3611 -1.01739,-2.7222 -1.01739,-4.06955c0,-2.22725 0.79741,-4.19329 2.40598,-5.8981c1.59482,-1.69106 3.61585,-2.54347 6.03558,-2.54347c1.8423,0 3.49212,0.57744 4.94945,1.74606c3.68459,3.01092 7.35544,5.29317 10.98504,6.84675c3.64335,1.55358 8.12535,2.32349 13.47352,2.32349c3.58835,0 6.88799,-0.56369 9.89891,-1.67732c3.01092,-1.11363 5.43065,-2.62596 7.27295,-4.5095c1.8423,-1.89729 2.76345,-4.0558 2.76345,-6.47554c0,-2.91468 -0.86615,-5.38941 -2.62596,-7.42418c-1.74606,-2.03478 -4.41326,-3.76708 -8.00162,-5.16943c-3.58835,-1.40235 -8.15285,-2.50222 -13.67974,-3.27214c-5.23817,-0.76992 -9.85766,-1.96603 -13.83098,-3.56086c-3.98706,-1.60857 -7.30045,-3.64335 -9.96765,-6.11808c-2.66721,-2.47473 -4.68823,-5.38941 -6.03558,-8.73029c-1.3611,-3.35463 -2.03478,-7.10797 -2.03478,-11.28751c0,-6.31055 1.62232,-11.69996 4.88071,-16.15447c3.24464,-4.46826 7.64416,-7.86413 13.17105,-10.18763c5.52689,-2.32349 11.64497,-3.49212 18.34048,-3.49212c6.31055,0 12.15366,0.94865 17.54307,2.83219c5.38941,1.89729 9.77517,4.28953 13.17105,7.20421c2.81844,2.22725 4.22078,4.79822 4.22078,7.7129c0,2.13102 -0.82491,4.06955 -2.47473,5.82936c-1.64982,1.74606 -3.58835,2.62596 -5.82936,2.62596c-1.45734,0 -2.76345,-0.43995 -3.93207,-1.30611c-1.55358,-1.3611 -3.64335,-2.63971 -6.25556,-3.86332c-2.62596,-1.20987 -5.38941,-2.22725 -8.30408,-3.05216c-2.91468,-0.82491 -5.63688,-1.23736 -8.15285,-1.23736c-4.17954,0 -7.69915,0.53619 -10.55884,1.60857c-2.85968,1.07238 -5.0182,2.52972 -6.47554,4.37202c-1.45734,1.8423 -2.18601,3.98706 -2.18601,6.40679c0,2.91468 0.85241,5.32066 2.54347,7.20421c1.69106,1.89729 4.15204,3.39588 7.35544,4.5095c3.2034,1.11363 7.03922,2.11727 11.50748,2.98342c5.82936,1.07238 10.94379,2.32349 15.35706,3.78083c4.41326,1.45734 8.08411,3.32713 10.99879,5.60938c2.91468,2.28225 5.10069,5.14193 6.54428,8.5928s2.18601,7.64416 2.18601,12.59361c0,6.31055 -1.74606,11.74121 -5.23817,16.3057c-3.49212,4.5645 -8.08411,8.05661 -13.76223,10.47635c-5.67812,2.39224 -11.80995,3.6021 -18.40922,3.6021z" class="st3"/>
    </g>
   </g>
   <path stroke="null" fill="#BED734" d="m610.89155,229.88216l-5.91185,-7.09422c-1.8148,-2.17226 -1.51233,-5.40315 0.65993,-7.20421l55.18642,-45.98868c2.17226,-1.8148 5.40315,-1.51233 7.20421,0.65993l5.91185,7.09422c1.8148,2.17226 1.51233,5.40315 -0.65993,7.20421l-55.18642,45.98868c-2.17226,1.8148 -5.40315,1.51233 -7.20421,-0.65993z" class="st0"/>
  </g>
 </g>
</svg>